<mxfile host="app.diagrams.net" agent="Mozilla/5.0 (Windows NT 10.0; Win64; x64) AppleWebKit/537.36 (KHTML, like Gecko) Chrome/131.0.0.0 Safari/537.36" version="25.0.3">
  <diagram name="Page-1" id="YOQWfkxTYECDHYtMrtMz">
    <mxGraphModel dx="2607" dy="1342" grid="1" gridSize="10" guides="1" tooltips="1" connect="1" arrows="1" fold="1" page="1" pageScale="1" pageWidth="850" pageHeight="1100" math="0" shadow="0">
      <root>
        <mxCell id="0" />
        <mxCell id="1" parent="0" />
        <mxCell id="OkkjX4a0Nv9M9LTrJ7yw-3" value="" style="edgeStyle=orthogonalEdgeStyle;rounded=0;orthogonalLoop=1;jettySize=auto;html=1;" edge="1" parent="1" source="OkkjX4a0Nv9M9LTrJ7yw-1">
          <mxGeometry relative="1" as="geometry">
            <mxPoint x="380" y="200" as="targetPoint" />
          </mxGeometry>
        </mxCell>
        <mxCell id="OkkjX4a0Nv9M9LTrJ7yw-1" value="Start" style="ellipse;whiteSpace=wrap;html=1;" vertex="1" parent="1">
          <mxGeometry x="320" y="60" width="120" height="80" as="geometry" />
        </mxCell>
        <mxCell id="OkkjX4a0Nv9M9LTrJ7yw-5" value="" style="edgeStyle=orthogonalEdgeStyle;rounded=0;orthogonalLoop=1;jettySize=auto;html=1;" edge="1" parent="1" target="OkkjX4a0Nv9M9LTrJ7yw-4">
          <mxGeometry relative="1" as="geometry">
            <mxPoint x="380" y="260" as="sourcePoint" />
          </mxGeometry>
        </mxCell>
        <mxCell id="OkkjX4a0Nv9M9LTrJ7yw-4" value="Validate&lt;div&gt;Url&lt;/div&gt;" style="rhombus;whiteSpace=wrap;html=1;" vertex="1" parent="1">
          <mxGeometry x="330" y="330" width="100" height="100" as="geometry" />
        </mxCell>
        <mxCell id="OkkjX4a0Nv9M9LTrJ7yw-7" value="Pass URL" style="shape=parallelogram;perimeter=parallelogramPerimeter;whiteSpace=wrap;html=1;fixedSize=1;" vertex="1" parent="1">
          <mxGeometry x="320" y="200" width="120" height="60" as="geometry" />
        </mxCell>
        <mxCell id="OkkjX4a0Nv9M9LTrJ7yw-8" value="" style="endArrow=classic;html=1;rounded=0;" edge="1" parent="1">
          <mxGeometry relative="1" as="geometry">
            <mxPoint x="430" y="380" as="sourcePoint" />
            <mxPoint x="530" y="380" as="targetPoint" />
          </mxGeometry>
        </mxCell>
        <mxCell id="OkkjX4a0Nv9M9LTrJ7yw-9" value="&amp;nbsp;False&amp;nbsp;" style="edgeLabel;resizable=0;html=1;;align=center;verticalAlign=middle;" connectable="0" vertex="1" parent="OkkjX4a0Nv9M9LTrJ7yw-8">
          <mxGeometry relative="1" as="geometry" />
        </mxCell>
        <mxCell id="OkkjX4a0Nv9M9LTrJ7yw-13" value="" style="endArrow=classic;html=1;rounded=0;exitX=0.5;exitY=1;exitDx=0;exitDy=0;" edge="1" parent="1" source="OkkjX4a0Nv9M9LTrJ7yw-4">
          <mxGeometry relative="1" as="geometry">
            <mxPoint x="440" y="390" as="sourcePoint" />
            <mxPoint x="380" y="500" as="targetPoint" />
          </mxGeometry>
        </mxCell>
        <mxCell id="OkkjX4a0Nv9M9LTrJ7yw-14" value="True" style="edgeLabel;resizable=0;html=1;;align=center;verticalAlign=middle;" connectable="0" vertex="1" parent="OkkjX4a0Nv9M9LTrJ7yw-13">
          <mxGeometry relative="1" as="geometry" />
        </mxCell>
        <mxCell id="OkkjX4a0Nv9M9LTrJ7yw-17" value="return: false;" style="shape=parallelogram;perimeter=parallelogramPerimeter;whiteSpace=wrap;html=1;fixedSize=1;" vertex="1" parent="1">
          <mxGeometry x="520" y="350" width="120" height="60" as="geometry" />
        </mxCell>
        <mxCell id="OkkjX4a0Nv9M9LTrJ7yw-18" value="Send a HEAD request to check if the URL exists." style="rounded=0;whiteSpace=wrap;html=1;" vertex="1" parent="1">
          <mxGeometry x="302.5" y="500" width="155" height="50" as="geometry" />
        </mxCell>
        <mxCell id="OkkjX4a0Nv9M9LTrJ7yw-23" value="return: false;" style="shape=parallelogram;perimeter=parallelogramPerimeter;whiteSpace=wrap;html=1;fixedSize=1;" vertex="1" parent="1">
          <mxGeometry x="520" y="620" width="120" height="60" as="geometry" />
        </mxCell>
        <mxCell id="OkkjX4a0Nv9M9LTrJ7yw-26" value="" style="endArrow=classic;html=1;rounded=0;" edge="1" parent="1">
          <mxGeometry relative="1" as="geometry">
            <mxPoint x="430" y="650" as="sourcePoint" />
            <mxPoint x="530" y="650" as="targetPoint" />
          </mxGeometry>
        </mxCell>
        <mxCell id="OkkjX4a0Nv9M9LTrJ7yw-27" value="&amp;nbsp;False&amp;nbsp;" style="edgeLabel;resizable=0;html=1;;align=center;verticalAlign=middle;" connectable="0" vertex="1" parent="OkkjX4a0Nv9M9LTrJ7yw-26">
          <mxGeometry relative="1" as="geometry" />
        </mxCell>
        <mxCell id="OkkjX4a0Nv9M9LTrJ7yw-31" value="&lt;div&gt;Check&amp;nbsp;&lt;/div&gt;&lt;div&gt;Response&amp;nbsp;&lt;/div&gt;&lt;div&gt;Is ok&lt;/div&gt;" style="rhombus;whiteSpace=wrap;html=1;" vertex="1" parent="1">
          <mxGeometry x="330" y="600" width="100" height="100" as="geometry" />
        </mxCell>
        <mxCell id="OkkjX4a0Nv9M9LTrJ7yw-32" value="" style="endArrow=classic;html=1;rounded=0;exitX=0.5;exitY=1;exitDx=0;exitDy=0;entryX=0.5;entryY=0;entryDx=0;entryDy=0;" edge="1" parent="1" source="OkkjX4a0Nv9M9LTrJ7yw-18" target="OkkjX4a0Nv9M9LTrJ7yw-31">
          <mxGeometry width="50" height="50" relative="1" as="geometry">
            <mxPoint x="280" y="600" as="sourcePoint" />
            <mxPoint x="330" y="550" as="targetPoint" />
          </mxGeometry>
        </mxCell>
        <mxCell id="OkkjX4a0Nv9M9LTrJ7yw-33" value="" style="endArrow=classic;html=1;rounded=0;exitX=0.5;exitY=1;exitDx=0;exitDy=0;" edge="1" parent="1" source="OkkjX4a0Nv9M9LTrJ7yw-31" target="OkkjX4a0Nv9M9LTrJ7yw-36">
          <mxGeometry relative="1" as="geometry">
            <mxPoint x="440" y="660" as="sourcePoint" />
            <mxPoint x="380" y="770" as="targetPoint" />
          </mxGeometry>
        </mxCell>
        <mxCell id="OkkjX4a0Nv9M9LTrJ7yw-34" value="True" style="edgeLabel;resizable=0;html=1;;align=center;verticalAlign=middle;" connectable="0" vertex="1" parent="OkkjX4a0Nv9M9LTrJ7yw-33">
          <mxGeometry relative="1" as="geometry" />
        </mxCell>
        <mxCell id="OkkjX4a0Nv9M9LTrJ7yw-38" value="" style="edgeStyle=orthogonalEdgeStyle;rounded=0;orthogonalLoop=1;jettySize=auto;html=1;" edge="1" parent="1" source="OkkjX4a0Nv9M9LTrJ7yw-36">
          <mxGeometry relative="1" as="geometry">
            <mxPoint x="380" y="900" as="targetPoint" />
          </mxGeometry>
        </mxCell>
        <mxCell id="OkkjX4a0Nv9M9LTrJ7yw-36" value="Retrieve the content type from the response headers.&amp;nbsp;&lt;div&gt;(video, image, HTML)&lt;/div&gt;" style="shape=parallelogram;perimeter=parallelogramPerimeter;whiteSpace=wrap;html=1;fixedSize=1;" vertex="1" parent="1">
          <mxGeometry x="270" y="770" width="220" height="60" as="geometry" />
        </mxCell>
        <mxCell id="OkkjX4a0Nv9M9LTrJ7yw-41" value="A" style="ellipse;whiteSpace=wrap;html=1;aspect=fixed;" vertex="1" parent="1">
          <mxGeometry x="350" y="900" width="60" height="60" as="geometry" />
        </mxCell>
        <mxCell id="OkkjX4a0Nv9M9LTrJ7yw-43" value="A" style="ellipse;whiteSpace=wrap;html=1;aspect=fixed;" vertex="1" parent="1">
          <mxGeometry x="1200" y="40" width="80" height="80" as="geometry" />
        </mxCell>
        <mxCell id="OkkjX4a0Nv9M9LTrJ7yw-46" value="" style="endArrow=classic;html=1;rounded=0;exitX=0.5;exitY=1;exitDx=0;exitDy=0;" edge="1" parent="1" source="OkkjX4a0Nv9M9LTrJ7yw-43">
          <mxGeometry width="50" height="50" relative="1" as="geometry">
            <mxPoint x="1275" y="250" as="sourcePoint" />
            <mxPoint x="1240" y="200" as="targetPoint" />
          </mxGeometry>
        </mxCell>
        <mxCell id="OkkjX4a0Nv9M9LTrJ7yw-47" value="Check Content&amp;nbsp;&lt;div&gt;Type&lt;/div&gt;" style="rhombus;whiteSpace=wrap;html=1;" vertex="1" parent="1">
          <mxGeometry x="1200" y="160" width="80" height="80" as="geometry" />
        </mxCell>
        <mxCell id="OkkjX4a0Nv9M9LTrJ7yw-48" value="" style="endArrow=classic;html=1;rounded=0;entryX=0.5;entryY=0;entryDx=0;entryDy=0;" edge="1" parent="1" target="OkkjX4a0Nv9M9LTrJ7yw-56">
          <mxGeometry relative="1" as="geometry">
            <mxPoint x="1110" y="200" as="sourcePoint" />
            <mxPoint x="1040" y="200" as="targetPoint" />
          </mxGeometry>
        </mxCell>
        <mxCell id="OkkjX4a0Nv9M9LTrJ7yw-49" value="Image" style="edgeLabel;resizable=0;html=1;;align=center;verticalAlign=middle;" connectable="0" vertex="1" parent="OkkjX4a0Nv9M9LTrJ7yw-48">
          <mxGeometry relative="1" as="geometry" />
        </mxCell>
        <mxCell id="OkkjX4a0Nv9M9LTrJ7yw-52" value="" style="endArrow=classic;html=1;rounded=0;exitX=0.5;exitY=1;exitDx=0;exitDy=0;" edge="1" parent="1" source="OkkjX4a0Nv9M9LTrJ7yw-47">
          <mxGeometry relative="1" as="geometry">
            <mxPoint x="1220" y="260" as="sourcePoint" />
            <mxPoint x="1240" y="320" as="targetPoint" />
          </mxGeometry>
        </mxCell>
        <mxCell id="OkkjX4a0Nv9M9LTrJ7yw-53" value="Html" style="edgeLabel;resizable=0;html=1;;align=center;verticalAlign=middle;" connectable="0" vertex="1" parent="OkkjX4a0Nv9M9LTrJ7yw-52">
          <mxGeometry relative="1" as="geometry" />
        </mxCell>
        <mxCell id="OkkjX4a0Nv9M9LTrJ7yw-56" value="Check&amp;nbsp;&lt;div&gt;Content&amp;nbsp;&lt;/div&gt;&lt;div&gt;Exist&lt;/div&gt;" style="rhombus;whiteSpace=wrap;html=1;" vertex="1" parent="1">
          <mxGeometry x="1070" y="280" width="80" height="80" as="geometry" />
        </mxCell>
        <mxCell id="OkkjX4a0Nv9M9LTrJ7yw-58" value="" style="endArrow=none;html=1;rounded=0;entryX=0;entryY=0.5;entryDx=0;entryDy=0;" edge="1" parent="1" target="OkkjX4a0Nv9M9LTrJ7yw-47">
          <mxGeometry width="50" height="50" relative="1" as="geometry">
            <mxPoint x="1110" y="200" as="sourcePoint" />
            <mxPoint x="1280" y="210" as="targetPoint" />
          </mxGeometry>
        </mxCell>
        <mxCell id="OkkjX4a0Nv9M9LTrJ7yw-59" value="return: false;" style="shape=parallelogram;perimeter=parallelogramPerimeter;whiteSpace=wrap;html=1;fixedSize=1;" vertex="1" parent="1">
          <mxGeometry x="880" y="290" width="120" height="60" as="geometry" />
        </mxCell>
        <mxCell id="OkkjX4a0Nv9M9LTrJ7yw-61" value="" style="endArrow=classic;html=1;rounded=0;exitX=0;exitY=0.5;exitDx=0;exitDy=0;entryX=1;entryY=0.5;entryDx=0;entryDy=0;" edge="1" parent="1" source="OkkjX4a0Nv9M9LTrJ7yw-56" target="OkkjX4a0Nv9M9LTrJ7yw-59">
          <mxGeometry relative="1" as="geometry">
            <mxPoint x="1070" y="270" as="sourcePoint" />
            <mxPoint x="1070" y="350" as="targetPoint" />
          </mxGeometry>
        </mxCell>
        <mxCell id="OkkjX4a0Nv9M9LTrJ7yw-62" value="False" style="edgeLabel;resizable=0;html=1;;align=center;verticalAlign=middle;" connectable="0" vertex="1" parent="OkkjX4a0Nv9M9LTrJ7yw-61">
          <mxGeometry relative="1" as="geometry" />
        </mxCell>
        <mxCell id="OkkjX4a0Nv9M9LTrJ7yw-63" value="return: true;" style="shape=parallelogram;perimeter=parallelogramPerimeter;whiteSpace=wrap;html=1;fixedSize=1;" vertex="1" parent="1">
          <mxGeometry x="1050" y="410" width="120" height="60" as="geometry" />
        </mxCell>
        <mxCell id="OkkjX4a0Nv9M9LTrJ7yw-66" value="" style="endArrow=classic;html=1;rounded=0;exitX=0.5;exitY=1;exitDx=0;exitDy=0;entryX=0.5;entryY=0;entryDx=0;entryDy=0;" edge="1" parent="1" source="OkkjX4a0Nv9M9LTrJ7yw-56" target="OkkjX4a0Nv9M9LTrJ7yw-63">
          <mxGeometry relative="1" as="geometry">
            <mxPoint x="1230" y="440" as="sourcePoint" />
            <mxPoint x="1150" y="440" as="targetPoint" />
          </mxGeometry>
        </mxCell>
        <mxCell id="OkkjX4a0Nv9M9LTrJ7yw-67" value="True" style="edgeLabel;resizable=0;html=1;;align=center;verticalAlign=middle;" connectable="0" vertex="1" parent="OkkjX4a0Nv9M9LTrJ7yw-66">
          <mxGeometry relative="1" as="geometry" />
        </mxCell>
        <mxCell id="OkkjX4a0Nv9M9LTrJ7yw-69" value="" style="endArrow=classic;html=1;rounded=0;entryX=0.5;entryY=0;entryDx=0;entryDy=0;" edge="1" parent="1" target="OkkjX4a0Nv9M9LTrJ7yw-71">
          <mxGeometry relative="1" as="geometry">
            <mxPoint x="1370" y="200" as="sourcePoint" />
            <mxPoint x="1300" y="200" as="targetPoint" />
          </mxGeometry>
        </mxCell>
        <mxCell id="OkkjX4a0Nv9M9LTrJ7yw-70" value="Video" style="edgeLabel;resizable=0;html=1;;align=center;verticalAlign=middle;" connectable="0" vertex="1" parent="OkkjX4a0Nv9M9LTrJ7yw-69">
          <mxGeometry relative="1" as="geometry" />
        </mxCell>
        <mxCell id="OkkjX4a0Nv9M9LTrJ7yw-71" value="Check&amp;nbsp;&lt;div&gt;Content&amp;nbsp;&lt;/div&gt;&lt;div&gt;Exist&lt;/div&gt;" style="rhombus;whiteSpace=wrap;html=1;" vertex="1" parent="1">
          <mxGeometry x="1330" y="280" width="80" height="80" as="geometry" />
        </mxCell>
        <mxCell id="OkkjX4a0Nv9M9LTrJ7yw-76" value="return: true;" style="shape=parallelogram;perimeter=parallelogramPerimeter;whiteSpace=wrap;html=1;fixedSize=1;" vertex="1" parent="1">
          <mxGeometry x="1310" y="410" width="120" height="60" as="geometry" />
        </mxCell>
        <mxCell id="OkkjX4a0Nv9M9LTrJ7yw-77" value="" style="endArrow=classic;html=1;rounded=0;exitX=0.5;exitY=1;exitDx=0;exitDy=0;entryX=0.5;entryY=0;entryDx=0;entryDy=0;" edge="1" parent="1" source="OkkjX4a0Nv9M9LTrJ7yw-71" target="OkkjX4a0Nv9M9LTrJ7yw-76">
          <mxGeometry relative="1" as="geometry">
            <mxPoint x="1490" y="440" as="sourcePoint" />
            <mxPoint x="1410" y="440" as="targetPoint" />
          </mxGeometry>
        </mxCell>
        <mxCell id="OkkjX4a0Nv9M9LTrJ7yw-78" value="True" style="edgeLabel;resizable=0;html=1;;align=center;verticalAlign=middle;" connectable="0" vertex="1" parent="OkkjX4a0Nv9M9LTrJ7yw-77">
          <mxGeometry relative="1" as="geometry" />
        </mxCell>
        <mxCell id="OkkjX4a0Nv9M9LTrJ7yw-79" value="return: false;" style="shape=parallelogram;perimeter=parallelogramPerimeter;whiteSpace=wrap;html=1;fixedSize=1;" vertex="1" parent="1">
          <mxGeometry x="1480" y="290" width="120" height="60" as="geometry" />
        </mxCell>
        <mxCell id="OkkjX4a0Nv9M9LTrJ7yw-80" value="" style="endArrow=classic;html=1;rounded=0;exitX=1;exitY=0.5;exitDx=0;exitDy=0;entryX=0;entryY=0.5;entryDx=0;entryDy=0;" edge="1" parent="1" target="OkkjX4a0Nv9M9LTrJ7yw-79" source="OkkjX4a0Nv9M9LTrJ7yw-71">
          <mxGeometry relative="1" as="geometry">
            <mxPoint x="1650" y="320" as="sourcePoint" />
            <mxPoint x="1470" y="320" as="targetPoint" />
          </mxGeometry>
        </mxCell>
        <mxCell id="OkkjX4a0Nv9M9LTrJ7yw-81" value="False" style="edgeLabel;resizable=0;html=1;;align=center;verticalAlign=middle;" connectable="0" vertex="1" parent="OkkjX4a0Nv9M9LTrJ7yw-80">
          <mxGeometry relative="1" as="geometry" />
        </mxCell>
        <mxCell id="OkkjX4a0Nv9M9LTrJ7yw-83" value="" style="endArrow=none;html=1;rounded=0;" edge="1" parent="1">
          <mxGeometry width="50" height="50" relative="1" as="geometry">
            <mxPoint x="1280" y="199.57" as="sourcePoint" />
            <mxPoint x="1370" y="200" as="targetPoint" />
          </mxGeometry>
        </mxCell>
      </root>
    </mxGraphModel>
  </diagram>
</mxfile>
